# xmcd CD database file
#
# Track frame offsets:
#	150
#	14731
#	27076
#	40689
#	53162
#	61413
#	72606
#	86779
#	97463
#	110884
#	121043
#	133310
#	146610
#	159780
#	174610
#
# Disc length: 2474 seconds
#
# Revision: 0
# Processed by: cddbd v1.5.2PL0 Copyright (c) Steve Scherf et al.
# Submitted via: ACXtractor (MTCDDB.DLL V2003.07.15)
#
DISCID=de09a80f
DTITLE=Charley Pride - Next to You I like Me
DYEAR=1988
DGENRE=Rock
TTITLE0=Have I got the Blues for You
TTITLE1=Lousiana Man
TTITLE2=All His Children
TTITLE3=Nothing Left But Leavin'
TTITLE4=Guess Things Happen that Way
TTITLE5=Help me Make it Through the Night
TTITLE6=Green Green Grass of Home
TTITLE7=Commin' Down with Love
TTITLE8=Mama Don't cry for Me
TTITLE9=Busted
TTITLE10=The Image of Me
TTITLE11=I'm gonna Love her on the Radio
TTITLE12=Mountain of Love
TTITLE13=Shouldn't it be Easier
TTITLE14=Oklahoma Morning
EXTD=ID3G:  17 YEAR: 1988
EXTT0=
EXTT1=
EXTT2=
EXTT3=
EXTT4=
EXTT5=
EXTT6=
EXTT7=
EXTT8=
EXTT9=
EXTT10=
EXTT11=
EXTT12=
EXTT13=
EXTT14=
PLAYORDER=
